<?xml version="1.0" standalone="no"?>
<!DOCTYPE svg PUBLIC "-//W3C//DTD SVG 1.1//EN" "http://www.w3.org/Graphics/SVG/1.1/DTD/svg11.dtd">
<svg t="1731821475003" class="icon" viewBox="0 0 1024 1024" version="1.1"
    xmlns="http://www.w3.org/2000/svg" p-id="5444" width="48" height="48"
    xmlns:xlink="http://www.w3.org/1999/xlink">
    <path
        d="M833.542678 182.993252a22.26087 22.26087 0 0 0-29.916382 0c-51.418157 46.658783-83.358052 139.056974-83.358053 241.138644v74.460382l-145.717426 51.153252V308.954157h26.975722c12.292452 0 22.26087-9.966191 22.26087-22.26087 0-119.08007-37.102191-226.722504-96.825879-280.916591a22.254191 22.254191 0 0 0-29.916382 0c-59.723687 54.196313-96.825878 161.836522-96.825878 280.916591 0 12.294678 9.968417 22.26087 22.260869 22.26087h26.975722v240.789147l-145.717426-51.153252v-74.460382c0-102.079443-31.942122-194.479861-83.358052-241.138644a22.26087 22.26087 0 0 0-29.916383 0c-51.420383 46.658783-83.360278 139.056974-83.360278 241.138644v85.296973c0 12.294678 9.968417 22.26087 22.260869 22.26087s22.26087-9.966191 22.26087-22.26087v-63.036104h27.022469v67.978018c0 76.357009 26.581704 151.026643 74.852174 210.258365 36.071513 44.263513 82.997426 78.482922 135.417322 99.443756 0.643339 0.325009 1.304487 0.627757 1.987896 0.894887 2.462052 0.963896 4.953043 1.840974 7.437356 2.744765l0.353948 0.13134c3.664139 1.328974 7.350539 2.586713 11.052522 3.782121 0.52313 0.169183 1.046261 0.345043 1.569391 0.512 3.343583 1.061843 6.704974 2.061357 10.077496 3.014122 0.545391 0.155826 1.084104 0.336139 1.631722 0.487513V1001.73913c0 12.294678 9.968417 22.26087 22.260869 22.26087s22.26087-9.966191 22.26087-22.26087v-157.00146c7.671096 1.026226 15.384487 1.825391 23.1424 2.317356 0.478609 0.031165 0.957217 0.046748 1.431374 0.046748 11.649113 0 21.446122-9.0624 22.194087-20.851757 0.781357-12.270191-8.537043-22.848557-20.807235-23.62546a287.864209 287.864209 0 0 1-43.232835-6.066087c-0.073461-0.017809-0.144696-0.042296-0.218157-0.057879-1.108591-0.242643-2.208278-0.509774-3.312417-0.765774a290.649043 290.649043 0 0 1-10.642922-2.682434 292.828383 292.828383 0 0 1-10.028521-2.925079 281.103583 281.103583 0 0 1-11.557844-3.893426c-0.598817-0.21593-1.195409-0.440765-1.792-0.661148-111.814122-41.193739-189.557983-149.682087-189.557983-271.201947v-90.238887c0-12.294678-9.968417-22.26087-22.260869-22.26087H152.188661c3.5328-68.877357 23.287096-131.526122 53.227965-169.694609 33.13753 42.244452 53.795617 114.480974 53.795617 191.955479v90.238887c0 59.68807 21.276939 117.659826 59.908453 163.241182 38.168487 45.031513 90.9824 75.459896 148.711513 85.677635a22.26087 22.26087 0 0 0 26.140939-21.922504V286.693287c0-12.294678-9.968417-22.26087-22.26087-22.26087H445.217391c3.719791-85.788939 28.714296-164.026991 66.782609-209.948939 38.068313 45.921948 63.062817 124.16 66.782609 209.948939h-26.494887c-12.292452 0-22.26087 9.966191-22.26087 22.26087v454.673809c0 6.582539 2.913948 12.826713 7.956035 17.058504a22.272 22.272 0 0 0 18.184904 4.864c57.729113-10.217739 110.5408-40.643896 148.711513-85.677635 38.631513-45.581357 59.908452-103.553113 59.908453-163.241182v-90.238887c0-77.474504 20.658087-149.711026 53.795617-191.955479 29.94087 38.168487 49.695165 100.817252 53.227965 169.694609h-48.713461c-12.292452 0-22.26087 9.966191-22.260869 22.26087v90.238887c0 134.633739-95.421217 253.2864-226.891687 282.129808a22.26087 22.26087 0 0 0-17.490365 21.744418V1001.73913c0 12.294678 9.968417 22.26087 22.260869 22.26087s22.26087-9.966191 22.26087-22.26087v-166.099478c66.11033-18.378574 125.791722-57.339548 169.529878-111.01273 48.27047-59.229496 74.852174-133.901357 74.852174-210.258365v-67.978018h27.022469v63.036104c0 12.294678 9.968417 22.26087 22.26087 22.26087s22.26087-9.966191 22.26087-22.26087v-85.296973c0-102.079443-31.942122-194.477635-83.360279-241.136418zM306.247235 546.660174l143.204174 50.271722v116.143861c-75.620174-23.672209-131.069774-88.3712-143.204174-166.415583z m268.301356 166.415583v-116.143861l143.204174-50.271722c-12.1344 78.044383-67.584 142.743374-143.204174 166.415583z"
        p-id="5445"></path>
</svg>