<svg width="18" height="18" viewBox="0 0 18 18" fill="none" xmlns="http://www.w3.org/2000/svg">
<path d="M17.3571 5.14286H11.5714V0.642857C11.5714 0.472361 11.5037 0.308848 11.3831 0.188289C11.2626 0.0677294 11.0991 4.66201e-09 10.9286 0L7.07143 0C6.90093 4.66201e-09 6.73742 0.0677294 6.61686 0.188289C6.4963 0.308848 6.42857 0.472361 6.42857 0.642857V5.14286H0.642857C0.472361 5.14286 0.308848 5.21059 0.188289 5.33115C0.0677294 5.4517 4.66201e-09 5.61522 0 5.78571L0 9.64286C4.66201e-09 9.81335 0.0677294 9.97687 0.188289 10.0974C0.308848 10.218 0.472361 10.2857 0.642857 10.2857H1.05686L0.100286 17.2697C0.0878052 17.3606 0.0949343 17.4532 0.121194 17.5411C0.147453 17.629 0.192234 17.7103 0.252526 17.7795C0.312818 17.8487 0.387223 17.9042 0.470739 17.9422C0.554255 17.9802 0.644946 17.9999 0.736714 18H17.2633C17.3551 17.9999 17.4457 17.9802 17.5293 17.9422C17.6128 17.9042 17.6872 17.8487 17.7475 17.7795C17.8078 17.7103 17.8525 17.629 17.8788 17.5411C17.9051 17.4532 17.9122 17.3606 17.8997 17.2697L16.9431 10.2857H17.3571C17.5276 10.2857 17.6912 10.218 17.8117 10.0974C17.9323 9.97687 18 9.81335 18 9.64286V5.78571C18 5.61522 17.9323 5.4517 17.8117 5.33115C17.6912 5.21059 17.5276 5.14286 17.3571 5.14286ZM8.1 6.81429V1.67143H9.9V6.81429H16.3286V8.61429H1.67143V6.81429H8.1ZM1.91571 16.3286L2.74371 10.2857H15.2563L16.0843 16.3286H12.8571V12.8571H11.5714V16.3286H6.42857V12.8571H5.14286V16.3286H1.91571Z" fill="white"/>
</svg>
