<svg width="24" height="24" viewBox="0 0 28 30" fill="none" xmlns="http://www.w3.org/2000/svg">
<path fill-rule="evenodd" clip-rule="evenodd" d="M19.6253 17.2623C20.2678 17.0414 20.9631 16.9151 21.6794 16.9151C25.1557 16.9151 28 19.7351 28 23.2075C28 26.68 25.1768 29.5 21.7005 29.5C18.2242 29.5 15.401 26.6694 15.401 23.2075C15.401 21.4082 16.1595 19.7877 17.3815 18.6408L14.1159 14.2739L10.7554 18.7671C11.8931 19.9035 12.5989 21.4713 12.5989 23.2075C12.5989 26.68 9.77576 29.5 6.29947 29.5C2.82317 29.5 0 26.68 0 23.2075C0 19.7351 2.83371 16.9151 6.29947 16.9151C7.079 16.9151 7.83746 17.0624 8.53272 17.3255L12.462 12.0642L5.00376 2.07837L7.1106 0.5L10.5237 5.06676L14.1053 9.86502L15.7487 12.0642L18.1926 15.3472L19.6253 17.2623ZM2.63356 23.197C2.63356 25.2173 4.2769 26.8589 6.29947 26.8589C8.3115 26.8589 9.96538 25.2173 9.96538 23.197C9.96538 21.1767 8.32204 19.5352 6.29947 19.5352C4.2769 19.5352 2.63356 21.1767 2.63356 23.197ZM18.0135 23.197C18.0135 25.2173 19.6569 26.8589 21.6794 26.8589C23.702 26.8589 25.3453 25.2173 25.3453 23.197C25.3453 21.1767 23.702 19.5352 21.6794 19.5352C19.6569 19.5352 18.0135 21.1767 18.0135 23.197ZM20.8683 0.815699L22.9752 2.39407L16.6757 10.8226L15.0219 8.64443L20.8683 0.815699Z" fill="#ebebeb"/>
</svg>
