<svg width="37" height="33" viewBox="0 0 37 33" fill="none" xmlns="http://www.w3.org/2000/svg">
    <rect width="37" height="33" fill="black" fill-opacity="0.2" />
    <rect x="0.5" y="0.5" width="36" height="32" stroke="white" stroke-opacity="0.1" />
    <path
        d="M28.4138 9.11111H16.4149L15.1666 6.82211C15.0313 6.57358 14.8296 6.3658 14.5832 6.22099C14.3368 6.07618 14.0548 5.99979 13.7676 6H8.58621C7.71141 6 7 6.69767 7 7.55556V25.4444C7 26.3023 7.71141 27 8.58621 27H28.4138C29.2886 27 30 26.3023 30 25.4444V10.6667C30 9.80878 29.2886 9.11111 28.4138 9.11111ZM8.58621 7.55556H13.7676L15.464 10.6667H28.4138V13.0482C28.4035 13.0482 28.394 13.0451 28.3837 13.0451H8.61714C8.60683 13.0451 8.59731 13.0482 8.58621 13.0482V7.55556ZM8.58621 25.4444V23.1111L8.61714 14.6007L28.4138 14.6302V23.1111H28.4154V25.4444H8.58621Z"
        fill="white" />
</svg>