<?xml version="1.0" standalone="no"?>
<!DOCTYPE svg PUBLIC "-//W3C//DTD SVG 1.1//EN" "http://www.w3.org/Graphics/SVG/1.1/DTD/svg11.dtd">
<svg 
    class="icon" 
    version="1.1"
    xmlns="http://www.w3.org/2000/svg" 
    xmlns:xlink="http://www.w3.org/1999/xlink" width="26" height="26" viewBox="0 0 24 24" fill="none">
    <path
        d="M0 7C0 6.44772 0.447715 6 1 6H5C5.55228 6 6 5.55228 6 5V1C6 0.447715 6.44772 0 7 0C7.55228 0 8 0.447715 8 1V7C8 7.55228 7.55228 8 7 8H1C0.447715 8 0 7.55228 0 7Z"
        fill="#f3ffff" />
    <path
        d="M24 7C24 6.44772 23.5523 6 23 6H19C18.4477 6 18 5.55228 18 5V1C18 0.447715 17.5523 0 17 0C16.4477 0 16 0.447715 16 1V7C16 7.55228 16.4477 8 17 8H23C23.5523 8 24 7.55228 24 7Z"
        fill="#f3ffff" />
    <path
        d="M1 18C0.447715 18 0 17.5523 0 17C0 16.4477 0.447715 16 1 16H7C7.55228 16 8 16.4477 8 17V23C8 23.5523 7.55228 24 7 24C6.44772 24 6 23.5523 6 23V19C6 18.4477 5.55228 18 5 18H1Z"
        fill="#f3ffff" />
    <path
        d="M24 17C24 17.5523 23.5523 18 23 18H19C18.4477 18 18 18.4477 18 19V23C18 23.5523 17.5523 24 17 24C16.4477 24 16 23.5523 16 23V17C16 16.4477 16.4477 16 17 16H23C23.5523 16 24 16.4477 24 17Z"
        fill="#f3ffff" />
    <path
        d="M10 6C10.5523 6 11 6.44772 11 7C11 7.55228 10.5523 8 10 8C9.44771 8 9 7.55228 9 7C9 6.44772 9.44771 6 10 6Z"
        fill="#f3ffff" />
    <path d="M7 9C7.55228 9 8 9.44771 8 10C8 10.5523 7.55228 11 7 11C6.44772 11 6 10.5523 6 10C6 9.44771 6.44772 9 7 9Z"
        fill="#f3ffff" />
    <path
        d="M10 16C9.44771 16 9 16.4477 9 17C9 17.5523 9.44771 18 10 18C10.5523 18 11 17.5523 11 17C11 16.4477 10.5523 16 10 16Z"
        fill="#f3ffff" />
    <path
        d="M14 6C14.5523 6 15 6.44772 15 7C15 7.55228 14.5523 8 14 8C13.4477 8 13 7.55228 13 7C13 6.44772 13.4477 6 14 6Z"
        fill="#f3ffff" />
    <path
        d="M14 16C13.4477 16 13 16.4477 13 17C13 17.5523 13.4477 18 14 18C14.5523 18 15 17.5523 15 17C15 16.4477 14.5523 16 14 16Z"
        fill="#f3ffff" />
    <path
        d="M17 9C17.5523 9 18 9.44771 18 10C18 10.5523 17.5523 11 17 11C16.4477 11 16 10.5523 16 10C16 9.44771 16.4477 9 17 9Z"
        fill="#f3ffff" />
    <path
        d="M17 13C16.4477 13 16 13.4477 16 14C16 14.5523 16.4477 15 17 15C17.5523 15 18 14.5523 18 14C18 13.4477 17.5523 13 17 13Z"
        fill="#f3ffff" />
    <path
        d="M7 13C7.55228 13 8 13.4477 8 14C8 14.5523 7.55228 15 7 15C6.44772 15 6 14.5523 6 14C6 13.4477 6.44772 13 7 13Z"
        fill="#f3ffff" />
</svg>