<svg t="1736908912674" class="icon" viewBox="0 0 1024 1024" version="1.1" xmlns="http://www.w3.org/2000/svg" p-id="7213"
    width="16" height="16">
    <path
        d="M658.60520281 667.99477889l0-1.46824786c-0.07701746-4.40310487 0.15458115-27.49960483 0.15403494-34.83811294 0-32.83019662 3.01351315-55.54160923 9.73315042-70.990985 5.48517294-12.74557114 14.05923783-21.39719972 24.64231151-25.49114227 0.77235954-20.54782271 1.08152185-43.72297881 1.08152185-69.75488202 0-212.97240879-100.65363353-343.59730694-183.54026646-343.59785315s-183.54026644 130.62544436-183.54026644 343.59785315c-0.00054623 20.54836893 0.15458115 39.31878149 0.61777838 56.46800372 10.35092882 4.24852372 18.61637763 12.74557114 24.02398688 25.25954367 6.72072972 15.44937577 9.73260421 38.16024218 9.73315044 70.99098502 0 7.33796189 0.23159862 30.4355543 0.15458114 34.83865914-0.07701746 5.17546441-0.23214484 9.42398812-0.69534207 13.2093146 20.93400247 22.24712295 54.46008739 29.50861359 107.6824331 31.51707613-0.07647125-3.47616417-0.07592502-7.10690948-0.07647123-10.8152185 0-27.57662228 1.31366669-49.6697103 4.40310487-66.27817161 1.93144508-10.42849251 4.55768601-18.92553994 8.42002995-25.80085082 6.25753248-11.12328836 16.06770038-18.61637763 29.27646876-18.6163776s23.02002871 7.49308926 29.27701497 18.61692386c3.86289017 6.87476466 6.48913111 15.37181207 8.42002996 25.8008508 3.08998441 16.53035139 4.40310487 38.70045686 4.40310487 66.2781716 0 3.70776279 0.00054623 7.33850811-0.07701747 10.81467227 51.67871908-1.93089887 84.81753177-8.88377342 105.90611542-29.74075843z m4.71226718 25.95488573c-13.44145943 9.65613296-29.81777589 16.22228151-49.74782023 20.39378777-16.76304246 3.47561795-35.99719847 5.40651681-61.72103181 6.33400372-0.69479585 11.43245067-1.93144508 21.08858364-3.63074532 29.1994513-2.00846255 9.73315043-4.94331957 17.68998316-9.26940698 24.17911426-6.48858487 9.73315043-16.37686268 15.912573-28.35007426 15.91257299-11.97321159 0-21.78337949-6.17996879-28.34952806-15.91311923-4.3260874-6.48913111-7.18447318-14.44596382-9.26995319-24.17856802-1.69930023-8.11086765-2.85838579-17.76700061-3.63074534-29.1994513-25.64626965-0.84992323-44.88042567-2.85838579-61.72103181-6.33400372-23.17406364-4.86684832-41.63640634-12.90069851-56.15884141-25.33765357-2.00791633 2.47220601-4.40255863 4.86684832-7.18392695 7.41552557 0 0-12.12779274 10.42903873-16.99464108 14.90916107-23.8688595 22.17010548-38.62343942 31.74867476-57.00821842 29.35403245-14.52243507-1.85333518-24.64231149-11.89564791-29.81832212-26.41862921-3.70776279-10.42849251-5.33004556-24.02398688-5.33004555-41.94556865 0.00054623-32.52158052 9.03835458-67.82289069 23.40675469-98.72218846 13.67251184-29.19945129 28.58167289-49.59378529 46.11652869-53.91878023-0.38617977-16.37631646-0.61832461-34.45247939-0.6177784-54.30496001C304.03864244 361.39862857 327.36674102 269.7052397 368.00028164 201.95936647c35.92018101-59.63609803 83.42739383-97.17801559 131.24376898-102.43049746L499.24350441 41.5937099c-0.00054623-6.33454995 5.17546441-11.4329969 11.43245066-11.43245067a11.40715598 11.40715598 0 0 1 11.43245067 11.43245067l0 57.93570533c47.81637514 5.25248187 95.32304175 42.79494565 131.08918783 102.42995124 40.63244818 67.82343692 63.96054675 159.51682579 63.96109297 263.41447865 0 25.56870597-0.30861609 48.04851998-1.00450437 67.97801807 17.30380338 4.63470349 31.98081959 24.87336389 45.4992965 53.76474533 14.4454176 30.89875153 23.40566226 66.20115414 23.40566226 98.72218844 0 17.84401808-1.62228277 31.51707614-5.33004557 41.94556865-5.17491818 14.52188886-15.29479462 24.56420158-29.81722967 26.41862918-18.38477902 2.39464231-33.13935892-7.18392697-57.00931087-29.35403242-4.8663021-4.48066855-16.99409484-14.98617853-16.99409485-14.90861485-5.94782395-5.33059178-9.8101679-9.96529527-12.59098998-15.99068291zM438.06323351 343.24544818c0-40.09168726 32.52103431-72.53515787 72.61217534-72.53570409s72.61326778 32.44401683 72.61272155 72.53625031-32.52103431 72.53515787-72.61217533 72.5357041-72.61326778-32.44401683-72.61272156-72.53625032z m122.28297808 0c0-27.42258736-22.24766917-49.67025653-49.67025652-49.67025652s-49.67025653 22.24766917-49.67025653 49.67025652 22.24712295 49.67080276 49.67025653 49.67025653 49.6697103-22.24712295 49.67025652-49.67025653z m-145.2254431 465.88028503c0-6.33400373 5.17546441-11.50946813 11.43245068-11.50892191 6.33454995-0.00054623 11.43245067 5.09735451 11.43245066 11.50892191l0 76.32048436c0 6.33509617-5.17546441 11.51056058-11.43245066 11.51001436-6.33454995 0.00054623-11.4329969-5.09790073-11.43245068-11.50892192L415.12022226 809.12518698z m168.16790814 0c0-6.33400373 5.17546441-11.50946813 11.43245067-11.50892191 6.33454995-0.00054623 11.4329969 5.09790073 11.43245067 11.50892191l0.00054622 76.32103058c0 6.33400373-5.17601063 11.51001436-11.43299689 11.50946814-6.33400373 0-11.43245067-5.09844695-11.43245067-11.50892192l0-76.3215768z m-84.04626467 19.08066731c0.00109244-6.33509617 5.17601063-11.51001436 11.43354311-11.51001435 6.33400373 0 11.4329969 5.17546441 11.43245067 11.50892192l0 114.48181895c0 6.33400373-5.17546441 11.50946813-11.43299689 11.50946814-6.33400373 0-11.43245067-5.17491818-11.43245067-11.50892193L499.24350441 828.20530809zM529.83363986 686.91977258c0-48.51117098-4.3260874-87.83049871-19.0801211-87.83104493-14.75403367 0.00054623-19.08012108 39.31987394-19.08012107 87.83104493s4.32554118 80.18282828 19.08012107 80.18282829c14.67701622 0 19.08012108-31.67165729 19.0801211-80.18282829zM338.64570298 618.16994119c0-63.2657509-11.97375783-76.39750181-26.72833772-76.39859426s-53.60907171 67.28322222-53.60961794 130.54951934c0 63.2657509 22.71086642 50.98337699 53.61016416 22.16955927s26.72779151-13.05473345 26.7277915-76.32048435z m423.47097292 67.66885577c0-63.2657509-38.85503802-130.5484269-53.60961794-130.5484269s-26.72779151 13.13229712-26.7277915 76.39804803-4.17096003 47.58477652 26.7277915 76.39804803c30.89875153 28.73570782 53.60961794 41.01808173 53.60961794-22.24766916z"
        fill="#1a1616" p-id="7214"></path>
</svg>