<svg width="24" height="24" viewBox="0 0 24 24" fill="none" xmlns="http://www.w3.org/2000/svg">
    <path
        d="M5.41076 11.25L10.0704 6.59037C10.211 6.44969 10.2901 6.2589 10.2901 6.05997C10.2901 5.86103 10.211 5.67024 10.0704 5.52957C9.92969 5.38889 9.7389 5.30987 9.53996 5.30987C9.34102 5.30987 9.15023 5.38889 9.00956 5.52957L3.15356 11.3856C2.99052 11.5487 2.89893 11.7699 2.89893 12.0006C2.89893 12.2312 2.99052 12.4524 3.15356 12.6156L9.00956 18.4704C9.15023 18.611 9.34102 18.6901 9.53996 18.6901C9.7389 18.6901 9.92969 18.611 10.0704 18.4704C10.211 18.3297 10.2901 18.1389 10.2901 17.94C10.2901 17.741 10.211 17.5502 10.0704 17.4096L5.41076 12.75H20.4C20.5989 12.75 20.7896 12.6709 20.9303 12.5303C21.0709 12.3896 21.15 12.1989 21.15 12C21.15 11.8011 21.0709 11.6103 20.9303 11.4696C20.7896 11.329 20.5989 11.25 20.4 11.25H5.41076Z"
        fill="white" />
</svg>