<svg width="28" height="29" viewBox="0 0 28 29" fill="none" xmlns="http://www.w3.org/2000/svg">
<path d="M3.9375 14.5C3.9375 15.0802 4.16797 15.6366 4.5782 16.0468C4.98844 16.457 5.54484 16.6875 6.125 16.6875C6.70516 16.6875 7.26156 16.457 7.6718 16.0468C8.08203 15.6366 8.3125 15.0802 8.3125 14.5C8.3125 13.9198 8.08203 13.3634 7.6718 12.9532C7.26156 12.543 6.70516 12.3125 6.125 12.3125C5.54484 12.3125 4.98844 12.543 4.5782 12.9532C4.16797 13.3634 3.9375 13.9198 3.9375 14.5Z" fill="white"/>
<path d="M11.8125 14.5C11.8125 15.0802 12.043 15.6366 12.4532 16.0468C12.8634 16.457 13.4198 16.6875 14 16.6875C14.5802 16.6875 15.1366 16.457 15.5468 16.0468C15.957 15.6366 16.1875 15.0802 16.1875 14.5C16.1875 13.9198 15.957 13.3634 15.5468 12.9532C15.1366 12.543 14.5802 12.3125 14 12.3125C13.4198 12.3125 12.8634 12.543 12.4532 12.9532C12.043 13.3634 11.8125 13.9198 11.8125 14.5Z" fill="white"/>
<path d="M19.6875 14.5C19.6875 15.0802 19.918 15.6366 20.3282 16.0468C20.7384 16.457 21.2948 16.6875 21.875 16.6875C22.4552 16.6875 23.0116 16.457 23.4218 16.0468C23.832 15.6366 24.0625 15.0802 24.0625 14.5C24.0625 13.9198 23.832 13.3634 23.4218 12.9532C23.0116 12.543 22.4552 12.3125 21.875 12.3125C21.2948 12.3125 20.7384 12.543 20.3282 12.9532C19.918 13.3634 19.6875 13.9198 19.6875 14.5Z" fill="white"/>
</svg>
