<svg width="16" height="16" viewBox="0 0 16 16" fill="none" xmlns="http://www.w3.org/2000/svg">
<path d="M11.25 3H2.75C2.4186 3.0004 2.10089 3.13222 1.86655 3.36655C1.63222 3.60089 1.5004 3.9186 1.5 4.25V13.75C1.5 14.4395 2.061 15 2.75 15H11.25C11.9395 15 12.5 14.4395 12.5 13.75V4.25C12.5 3.561 11.9395 3 11.25 3ZM11.5 13.75C11.5 13.8875 11.3875 14 11.25 14H2.75C2.6837 14 2.62011 13.9737 2.57322 13.9268C2.52634 13.8799 2.5 13.8163 2.5 13.75V4.25C2.5 4.1837 2.52634 4.12011 2.57322 4.07322C2.62011 4.02634 2.6837 4 2.75 4H11.25C11.3163 4 11.3799 4.02634 11.4268 4.07322C11.4737 4.12011 11.5 4.1837 11.5 4.25V13.75Z" fill="white"/>
<path d="M13.25 1H4.75C4.61739 1 4.49021 1.05268 4.39645 1.14645C4.30268 1.24021 4.25 1.36739 4.25 1.5C4.25 1.63261 4.30268 1.75979 4.39645 1.85355C4.49021 1.94732 4.61739 2 4.75 2H13.25C13.3163 2 13.3799 2.02634 13.4268 2.07322C13.4737 2.12011 13.5 2.1837 13.5 2.25V11.75C13.5 11.8826 13.5527 12.0098 13.6464 12.1036C13.7402 12.1973 13.8674 12.25 14 12.25C14.1326 12.25 14.2598 12.1973 14.3536 12.1036C14.4473 12.0098 14.5 11.8826 14.5 11.75V2.25C14.5 1.561 13.9395 1 13.25 1Z" fill="white"/>
<path d="M9.5 5.625H4.5C4.36739 5.625 4.24021 5.67768 4.14645 5.77145C4.05268 5.86521 4 5.99239 4 6.125C4 6.25761 4.05268 6.38479 4.14645 6.47855C4.24021 6.57232 4.36739 6.625 4.5 6.625H9.5C9.63261 6.625 9.75979 6.57232 9.85355 6.47855C9.94732 6.38479 10 6.25761 10 6.125C10 5.99239 9.94732 5.86521 9.85355 5.77145C9.75979 5.67768 9.63261 5.625 9.5 5.625ZM9.5 8.125H4.5C4.36739 8.125 4.24021 8.17768 4.14645 8.27145C4.05268 8.36521 4 8.49239 4 8.625C4 8.75761 4.05268 8.88479 4.14645 8.97855C4.24021 9.07232 4.36739 9.125 4.5 9.125H9.5C9.63261 9.125 9.75979 9.07232 9.85355 8.97855C9.94732 8.88479 10 8.75761 10 8.625C10 8.49239 9.94732 8.36521 9.85355 8.27145C9.75979 8.17768 9.63261 8.125 9.5 8.125ZM7.5 10.604H4.5C4.36739 10.604 4.24021 10.6567 4.14645 10.7504C4.05268 10.8442 4 10.9714 4 11.104C4 11.2366 4.05268 11.3638 4.14645 11.4576C4.24021 11.5513 4.36739 11.604 4.5 11.604H7.5C7.63261 11.604 7.75979 11.5513 7.85355 11.4576C7.94732 11.3638 8 11.2366 8 11.104C8 10.9714 7.94732 10.8442 7.85355 10.7504C7.75979 10.6567 7.63261 10.604 7.5 10.604Z" fill="white"/>
</svg>
