<svg width="18" height="18" viewBox="0 0 18 18" fill="none" xmlns="http://www.w3.org/2000/svg">
<path d="M14.2522 0.238738C14.0989 0.0858508 13.8911 0 13.6746 0C13.4581 0 13.2503 0.0858508 13.097 0.238738L0.238901 13.0974C0.085957 13.2507 4.60112e-05 13.4585 0 13.675V17.1818C0 17.3988 0.0861983 17.6069 0.239632 17.7604C0.393065 17.9138 0.601165 18 0.818153 18H4.32475C4.54132 18 4.74904 17.914 4.90237 17.7611L17.7605 4.90242C17.9138 4.74899 18 4.54091 18 4.32396C18 4.10701 17.9138 3.89893 17.7605 3.7455L14.2522 0.238738ZM11.6783 3.97623L13.6762 1.97657L16.026 4.32641L14.0264 6.32443L11.6783 3.97623ZM10.5214 5.13315L12.8695 7.48135L3.98604 16.3636H1.63631V14.0138L10.5198 5.13151L10.5214 5.13315Z" fill="white"/>
</svg>
