<svg width="29" height="29" viewBox="0 0 29 29" fill="none" xmlns="http://www.w3.org/2000/svg">
<path d="M22.91 26.7283H6.09001C5.46167 26.7283 4.83334 26.4383 4.44667 25.9067C4.06001 25.375 3.96334 24.6983 4.15667 24.07C4.88167 21.7983 6.09001 17.545 6.09001 14.5C6.09001 11.455 4.88167 7.20167 4.15667 4.93C3.96334 4.30167 4.06001 3.625 4.44667 3.09333C4.83334 2.56167 5.41334 2.27167 6.09001 2.27167H22.91C23.5383 2.27167 24.1667 2.56167 24.5533 3.09333C24.94 3.625 25.0367 4.30167 24.8433 4.93C24.1183 7.20167 22.91 11.455 22.91 14.5C22.91 17.545 24.1183 21.7983 24.8433 24.07C25.0367 24.6983 24.94 25.375 24.5533 25.9067C24.1667 26.4383 23.5867 26.7283 22.91 26.7283ZM5.51001 4.495C6.28334 6.815 7.54001 11.2617 7.54001 14.5C7.54001 17.7383 6.28334 22.185 5.51001 24.505C5.46167 24.6983 5.46167 24.8917 5.60667 25.0367C5.65501 25.1333 5.80001 25.2783 6.09001 25.2783H22.91C23.1517 25.2783 23.2967 25.1333 23.3933 25.0367C23.49 24.8917 23.5383 24.6983 23.49 24.505C22.7167 22.185 21.46 17.7383 21.46 14.5C21.46 11.2617 22.7167 6.815 23.49 4.495C23.5383 4.30167 23.5383 4.10833 23.3933 3.96333C23.345 3.86667 23.2 3.72167 22.91 3.72167H6.09001C5.84834 3.72167 5.70334 3.86667 5.60667 3.96333C5.51001 4.10833 5.46167 4.30167 5.51001 4.495ZM1.69167 20.9767C1.54667 20.9767 1.40167 20.9283 1.25667 20.8317C0.918341 20.59 0.870007 20.155 1.11167 19.8167C1.93334 18.705 2.27167 16.24 2.27167 14.5C2.27167 12.76 1.98167 10.295 1.11167 9.18333C0.870007 8.845 0.918341 8.41 1.25667 8.16833C1.59501 7.92667 2.03001 7.975 2.27167 8.31333C3.57667 10.1017 3.72167 13.485 3.72167 14.5C3.72167 15.515 3.62501 18.9467 2.27167 20.6867C2.12667 20.88 1.93334 20.9767 1.69167 20.9767Z" fill="#1D80F5"/>
<path d="M18.3667 9.76333H10.6333C10.2467 9.76333 9.90833 9.425 9.90833 9.03833C9.90833 8.65166 10.2467 8.31333 10.6333 8.31333H18.3667C18.7533 8.31333 19.0917 8.65166 19.0917 9.03833C19.0917 9.425 18.7533 9.76333 18.3667 9.76333ZM18.3667 15.225H10.6333C10.2467 15.225 9.90833 14.8867 9.90833 14.5C9.90833 14.1133 10.2467 13.775 10.6333 13.775H18.3667C18.7533 13.775 19.0917 14.1133 19.0917 14.5C19.0917 14.8867 18.7533 15.225 18.3667 15.225ZM13.2433 20.3483H10.6333C10.2467 20.3483 9.90833 20.01 9.90833 19.6233C9.90833 19.2367 10.2467 18.8983 10.6333 18.8983H13.195C13.5817 18.8983 13.92 19.2367 13.92 19.6233C13.92 20.01 13.63 20.3483 13.2433 20.3483ZM27.3083 20.9767C27.0667 20.9767 26.7767 20.8317 26.68 20.59C25.7617 18.7533 25.3267 16.7717 25.3267 14.5C25.3267 13.485 25.4233 10.0533 26.7283 8.31333C26.97 7.975 27.405 7.92666 27.7433 8.16833C28.0817 8.41 28.13 8.845 27.8883 9.18333C27.0667 10.295 26.7767 12.76 26.7767 14.5C26.7767 16.5783 27.1633 18.3183 27.985 19.9617C28.1783 20.3 28.0333 20.735 27.6467 20.9283C27.55 20.9767 27.405 20.9767 27.3083 20.9767Z" fill="#1D80F5"/>
</svg>
