<svg width="16" height="16" viewBox="0 0 16 16" fill="none" xmlns="http://www.w3.org/2000/svg">
<path fill-rule="evenodd" clip-rule="evenodd" d="M8 16C12.4183 16 16 12.4183 16 8C16 3.58172 12.4183 0 8 0C3.58172 0 0 3.58172 0 8C0 12.4183 3.58172 16 8 16ZM12.7071 6.70711C13.0976 6.31658 13.0976 5.68342 12.7071 5.29289C12.3166 4.90237 11.6834 4.90237 11.2929 5.29289L7 9.58579L4.70711 7.29289C4.31658 6.90237 3.68342 6.90237 3.29289 7.29289C2.90237 7.68342 2.90237 8.31658 3.29289 8.70711L6.29289 11.7071C6.68342 12.0976 7.31658 12.0976 7.70711 11.7071L12.7071 6.70711Z" fill="#00D97E"/>
</svg>
