<?xml version="1.0" standalone="no"?>
<!DOCTYPE svg PUBLIC "-//W3C//DTD SVG 1.1//EN" "http://www.w3.org/Graphics/SVG/1.1/DTD/svg11.dtd"><svg t="1736909154700"
    class="icon" viewBox="0 0 1024 1024" version="1.1" xmlns="http://www.w3.org/2000/svg" p-id="13391"
    xmlns:xlink="http://www.w3.org/1999/xlink" width="16" height="16">
    <path
        d="M722.651429 362.788571c18.285714 0 35.474286 7.314286 48.64 20.114286 13.165714 13.165714 20.114286 30.354286 20.114285 48.64v245.028572c0 36.571429-7.314286 72.411429-21.577143 106.057142-13.897143 32.548571-33.645714 61.805714-58.514285 87.04-25.234286 25.234286-54.491429 44.982857-87.04 58.514286-33.645714 14.262857-69.12 21.577143-106.057143 21.577143h-197.485714c-35.84 0-70.582857-6.948571-103.497143-21.211429-31.817143-13.531429-60.342857-32.914286-84.845715-57.417142-24.502857-24.502857-43.885714-53.028571-57.417142-84.845715-13.897143-32.914286-21.211429-67.657143-21.211429-103.497143V431.542857c0-18.285714 7.314286-35.474286 20.114286-48.64 13.165714-13.165714 30.354286-20.114286 48.64-20.114286h600.137143m0-50.834285h-599.771429c-65.828571 0-119.954286 54.125714-119.954286 119.954285v251.245715c0 174.811429 142.994286 317.805714 317.805715 317.805714h197.851428c178.102857 0 324.022857-145.92 324.022857-324.022857v-245.028572c0-66.194286-54.125714-119.954286-119.954285-119.954285z m0 0"
        p-id="13392"></path>
    <path
        d="M896.365714 433.737143c19.748571 0 38.765714 7.68 53.028572 21.942857 14.262857 14.262857 21.942857 32.914286 21.942857 53.028571v47.542858c0 22.308571-8.777143 43.52-24.868572 59.611428s-37.302857 24.868571-59.611428 24.868572h-44.251429v-206.994286h53.76m0-51.2h-90.697143c-7.68 0-13.897143 6.217143-13.897142 13.531428v281.6c0 7.68 6.217143 13.531429 13.897142 13.531429h81.554286c74.24 0 135.314286-60.708571 135.314286-135.314286v-47.542857c0-68.754286-56.685714-125.805714-126.171429-125.805714zM259.291429 873.325714c-4.022857 0-8.411429-1.097143-12.068572-2.925714-55.954286-30.354286-96.548571-78.628571-117.394286-139.702857-15.725714-45.714286-14.628571-83.017143-14.628571-84.48 0.365714-13.897143 12.068571-25.234286 26.331429-24.868572 13.897143 0.365714 25.234286 12.068571 24.868571 26.331429 0 0.365714-0.731429 31.085714 12.434286 68.388571 17.188571 48.64 48.274286 85.577143 92.891428 109.714286 12.434286 6.582857 16.822857 22.308571 10.24 34.742857-4.754286 8.045714-13.531429 12.8-22.674285 12.8zM172.982857 25.6c-13.897143 0-25.6 11.337143-25.6 25.6v176.64c0 13.897143 11.337143 25.6 25.6 25.6s25.6-11.337143 25.6-25.6V51.2c0-14.262857-11.702857-25.6-25.6-25.6z m241.737143 2.56c-13.897143 0-25.6 11.337143-25.6 25.6V230.4c0 13.897143 11.337143 25.6 25.6 25.6 13.897143 0 25.6-11.337143 25.6-25.6V53.76c0-14.262857-11.702857-25.6-25.6-25.6z m250.88-0.731429c-13.897143 0-25.6 11.337143-25.6 25.6v176.64c0 13.897143 11.337143 25.6 25.6 25.6s25.6-11.337143 25.6-25.6V53.028571c-0.365714-13.897143-11.702857-25.6-25.6-25.6z m0 0"
        p-id="13393"></path>
</svg>